<mxfile host="app.diagrams.net" modified="2021-01-19T01:28:13.065Z" agent="5.0 (Windows NT 10.0; Win64; x64) AppleWebKit/537.36 (KHTML, like Gecko) Chrome/87.0.4280.141 Safari/537.36" etag="K-VVtc4DNYqJOzK5qiOk" version="14.2.4" type="github">
  <diagram id="PAOuNJBse6k72HpRpejP" name="Page-1">
    <mxGraphModel dx="1038" dy="548" grid="1" gridSize="10" guides="1" tooltips="1" connect="1" arrows="1" fold="1" page="1" pageScale="1" pageWidth="850" pageHeight="1100" math="0" shadow="0">
      <root>
        <mxCell id="0" />
        <mxCell id="1" parent="0" />
        <mxCell id="CI3YDtKb9qRA6XTvtAf0-1" value="credentials" style="shape=table;startSize=30;container=1;collapsible=1;childLayout=tableLayout;fixedRows=1;rowLines=0;fontStyle=1;align=center;resizeLast=1;" vertex="1" parent="1">
          <mxGeometry x="50" y="110" width="180" height="160" as="geometry" />
        </mxCell>
        <mxCell id="CI3YDtKb9qRA6XTvtAf0-2" value="" style="shape=partialRectangle;collapsible=0;dropTarget=0;pointerEvents=0;fillColor=none;top=0;left=0;bottom=1;right=0;points=[[0,0.5],[1,0.5]];portConstraint=eastwest;" vertex="1" parent="CI3YDtKb9qRA6XTvtAf0-1">
          <mxGeometry y="30" width="180" height="30" as="geometry" />
        </mxCell>
        <mxCell id="CI3YDtKb9qRA6XTvtAf0-3" value="PK" style="shape=partialRectangle;connectable=0;fillColor=none;top=0;left=0;bottom=0;right=0;fontStyle=1;overflow=hidden;" vertex="1" parent="CI3YDtKb9qRA6XTvtAf0-2">
          <mxGeometry width="30" height="30" as="geometry" />
        </mxCell>
        <mxCell id="CI3YDtKb9qRA6XTvtAf0-4" value="username" style="shape=partialRectangle;connectable=0;fillColor=none;top=0;left=0;bottom=0;right=0;align=left;spacingLeft=6;fontStyle=5;overflow=hidden;" vertex="1" parent="CI3YDtKb9qRA6XTvtAf0-2">
          <mxGeometry x="30" width="150" height="30" as="geometry" />
        </mxCell>
        <mxCell id="CI3YDtKb9qRA6XTvtAf0-5" value="" style="shape=partialRectangle;collapsible=0;dropTarget=0;pointerEvents=0;fillColor=none;top=0;left=0;bottom=0;right=0;points=[[0,0.5],[1,0.5]];portConstraint=eastwest;" vertex="1" parent="CI3YDtKb9qRA6XTvtAf0-1">
          <mxGeometry y="60" width="180" height="30" as="geometry" />
        </mxCell>
        <mxCell id="CI3YDtKb9qRA6XTvtAf0-6" value="" style="shape=partialRectangle;connectable=0;fillColor=none;top=0;left=0;bottom=0;right=0;editable=1;overflow=hidden;" vertex="1" parent="CI3YDtKb9qRA6XTvtAf0-5">
          <mxGeometry width="30" height="30" as="geometry" />
        </mxCell>
        <mxCell id="CI3YDtKb9qRA6XTvtAf0-7" value="password" style="shape=partialRectangle;connectable=0;fillColor=none;top=0;left=0;bottom=0;right=0;align=left;spacingLeft=6;overflow=hidden;" vertex="1" parent="CI3YDtKb9qRA6XTvtAf0-5">
          <mxGeometry x="30" width="150" height="30" as="geometry" />
        </mxCell>
        <mxCell id="CI3YDtKb9qRA6XTvtAf0-8" value="" style="shape=partialRectangle;collapsible=0;dropTarget=0;pointerEvents=0;fillColor=none;top=0;left=0;bottom=0;right=0;points=[[0,0.5],[1,0.5]];portConstraint=eastwest;" vertex="1" parent="CI3YDtKb9qRA6XTvtAf0-1">
          <mxGeometry y="90" width="180" height="30" as="geometry" />
        </mxCell>
        <mxCell id="CI3YDtKb9qRA6XTvtAf0-9" value="" style="shape=partialRectangle;connectable=0;fillColor=none;top=0;left=0;bottom=0;right=0;editable=1;overflow=hidden;" vertex="1" parent="CI3YDtKb9qRA6XTvtAf0-8">
          <mxGeometry width="30" height="30" as="geometry" />
        </mxCell>
        <mxCell id="CI3YDtKb9qRA6XTvtAf0-10" value="" style="shape=partialRectangle;connectable=0;fillColor=none;top=0;left=0;bottom=0;right=0;align=left;spacingLeft=6;overflow=hidden;" vertex="1" parent="CI3YDtKb9qRA6XTvtAf0-8">
          <mxGeometry x="30" width="150" height="30" as="geometry" />
        </mxCell>
        <mxCell id="CI3YDtKb9qRA6XTvtAf0-11" value="" style="shape=partialRectangle;collapsible=0;dropTarget=0;pointerEvents=0;fillColor=none;top=0;left=0;bottom=0;right=0;points=[[0,0.5],[1,0.5]];portConstraint=eastwest;" vertex="1" parent="CI3YDtKb9qRA6XTvtAf0-1">
          <mxGeometry y="120" width="180" height="30" as="geometry" />
        </mxCell>
        <mxCell id="CI3YDtKb9qRA6XTvtAf0-12" value="" style="shape=partialRectangle;connectable=0;fillColor=none;top=0;left=0;bottom=0;right=0;editable=1;overflow=hidden;" vertex="1" parent="CI3YDtKb9qRA6XTvtAf0-11">
          <mxGeometry width="30" height="30" as="geometry" />
        </mxCell>
        <mxCell id="CI3YDtKb9qRA6XTvtAf0-13" value="" style="shape=partialRectangle;connectable=0;fillColor=none;top=0;left=0;bottom=0;right=0;align=left;spacingLeft=6;overflow=hidden;" vertex="1" parent="CI3YDtKb9qRA6XTvtAf0-11">
          <mxGeometry x="30" width="150" height="30" as="geometry" />
        </mxCell>
        <mxCell id="CI3YDtKb9qRA6XTvtAf0-14" style="edgeStyle=orthogonalEdgeStyle;rounded=0;orthogonalLoop=1;jettySize=auto;html=1;startArrow=ERzeroToMany;startFill=1;endArrow=ERone;endFill=0;exitX=0;exitY=0.5;exitDx=0;exitDy=0;entryX=1.004;entryY=0.087;entryDx=0;entryDy=0;entryPerimeter=0;" edge="1" parent="1" source="CI3YDtKb9qRA6XTvtAf0-25" target="CI3YDtKb9qRA6XTvtAf0-69">
          <mxGeometry relative="1" as="geometry">
            <Array as="points">
              <mxPoint x="270" y="155" />
              <mxPoint x="270" y="353" />
            </Array>
            <mxPoint x="160" y="380" as="targetPoint" />
          </mxGeometry>
        </mxCell>
        <mxCell id="CI3YDtKb9qRA6XTvtAf0-15" value="messages" style="shape=table;startSize=30;container=1;collapsible=1;childLayout=tableLayout;fixedRows=1;rowLines=0;fontStyle=1;align=center;resizeLast=1;" vertex="1" parent="1">
          <mxGeometry x="320" y="20" width="180" height="260" as="geometry" />
        </mxCell>
        <mxCell id="CI3YDtKb9qRA6XTvtAf0-16" value="" style="shape=partialRectangle;collapsible=0;dropTarget=0;pointerEvents=0;fillColor=none;top=0;left=0;bottom=1;right=0;points=[[0,0.5],[1,0.5]];portConstraint=eastwest;" vertex="1" parent="CI3YDtKb9qRA6XTvtAf0-15">
          <mxGeometry y="30" width="180" height="30" as="geometry" />
        </mxCell>
        <mxCell id="CI3YDtKb9qRA6XTvtAf0-17" value="PK" style="shape=partialRectangle;connectable=0;fillColor=none;top=0;left=0;bottom=0;right=0;fontStyle=1;overflow=hidden;" vertex="1" parent="CI3YDtKb9qRA6XTvtAf0-16">
          <mxGeometry width="30" height="30" as="geometry" />
        </mxCell>
        <mxCell id="CI3YDtKb9qRA6XTvtAf0-18" value="id" style="shape=partialRectangle;connectable=0;fillColor=none;top=0;left=0;bottom=0;right=0;align=left;spacingLeft=6;fontStyle=5;overflow=hidden;" vertex="1" parent="CI3YDtKb9qRA6XTvtAf0-16">
          <mxGeometry x="30" width="150" height="30" as="geometry" />
        </mxCell>
        <mxCell id="CI3YDtKb9qRA6XTvtAf0-19" value="" style="shape=partialRectangle;collapsible=0;dropTarget=0;pointerEvents=0;fillColor=none;top=0;left=0;bottom=0;right=0;points=[[0,0.5],[1,0.5]];portConstraint=eastwest;" vertex="1" parent="CI3YDtKb9qRA6XTvtAf0-15">
          <mxGeometry y="60" width="180" height="30" as="geometry" />
        </mxCell>
        <mxCell id="CI3YDtKb9qRA6XTvtAf0-20" value="" style="shape=partialRectangle;connectable=0;fillColor=none;top=0;left=0;bottom=0;right=0;editable=1;overflow=hidden;" vertex="1" parent="CI3YDtKb9qRA6XTvtAf0-19">
          <mxGeometry width="30" height="30" as="geometry" />
        </mxCell>
        <mxCell id="CI3YDtKb9qRA6XTvtAf0-21" value="subject" style="shape=partialRectangle;connectable=0;fillColor=none;top=0;left=0;bottom=0;right=0;align=left;spacingLeft=6;overflow=hidden;" vertex="1" parent="CI3YDtKb9qRA6XTvtAf0-19">
          <mxGeometry x="30" width="150" height="30" as="geometry" />
        </mxCell>
        <mxCell id="CI3YDtKb9qRA6XTvtAf0-22" value="" style="shape=partialRectangle;collapsible=0;dropTarget=0;pointerEvents=0;fillColor=none;top=0;left=0;bottom=0;right=0;points=[[0,0.5],[1,0.5]];portConstraint=eastwest;" vertex="1" parent="CI3YDtKb9qRA6XTvtAf0-15">
          <mxGeometry y="90" width="180" height="30" as="geometry" />
        </mxCell>
        <mxCell id="CI3YDtKb9qRA6XTvtAf0-23" value="" style="shape=partialRectangle;connectable=0;fillColor=none;top=0;left=0;bottom=0;right=0;editable=1;overflow=hidden;" vertex="1" parent="CI3YDtKb9qRA6XTvtAf0-22">
          <mxGeometry width="30" height="30" as="geometry" />
        </mxCell>
        <mxCell id="CI3YDtKb9qRA6XTvtAf0-24" value="body" style="shape=partialRectangle;connectable=0;fillColor=none;top=0;left=0;bottom=0;right=0;align=left;spacingLeft=6;overflow=hidden;" vertex="1" parent="CI3YDtKb9qRA6XTvtAf0-22">
          <mxGeometry x="30" width="150" height="30" as="geometry" />
        </mxCell>
        <mxCell id="CI3YDtKb9qRA6XTvtAf0-25" value="" style="shape=partialRectangle;collapsible=0;dropTarget=0;pointerEvents=0;fillColor=none;top=0;left=0;bottom=0;right=0;points=[[0,0.5],[1,0.5]];portConstraint=eastwest;" vertex="1" parent="CI3YDtKb9qRA6XTvtAf0-15">
          <mxGeometry y="120" width="180" height="30" as="geometry" />
        </mxCell>
        <mxCell id="CI3YDtKb9qRA6XTvtAf0-26" value="FK" style="shape=partialRectangle;connectable=0;fillColor=none;top=0;left=0;bottom=0;right=0;editable=1;overflow=hidden;" vertex="1" parent="CI3YDtKb9qRA6XTvtAf0-25">
          <mxGeometry width="30" height="30" as="geometry" />
        </mxCell>
        <mxCell id="CI3YDtKb9qRA6XTvtAf0-27" value="sendingUser_id" style="shape=partialRectangle;connectable=0;fillColor=none;top=0;left=0;bottom=0;right=0;align=left;spacingLeft=6;overflow=hidden;" vertex="1" parent="CI3YDtKb9qRA6XTvtAf0-25">
          <mxGeometry x="30" width="150" height="30" as="geometry" />
        </mxCell>
        <mxCell id="CI3YDtKb9qRA6XTvtAf0-28" value="" style="shape=partialRectangle;collapsible=0;dropTarget=0;pointerEvents=0;fillColor=none;top=0;left=0;bottom=0;right=0;points=[[0,0.5],[1,0.5]];portConstraint=eastwest;" vertex="1" parent="CI3YDtKb9qRA6XTvtAf0-15">
          <mxGeometry y="150" width="180" height="30" as="geometry" />
        </mxCell>
        <mxCell id="CI3YDtKb9qRA6XTvtAf0-29" value="FK" style="shape=partialRectangle;connectable=0;fillColor=none;top=0;left=0;bottom=0;right=0;editable=1;overflow=hidden;" vertex="1" parent="CI3YDtKb9qRA6XTvtAf0-28">
          <mxGeometry width="30" height="30" as="geometry" />
        </mxCell>
        <mxCell id="CI3YDtKb9qRA6XTvtAf0-30" value="receivingUser_id" style="shape=partialRectangle;connectable=0;fillColor=none;top=0;left=0;bottom=0;right=0;align=left;spacingLeft=6;overflow=hidden;" vertex="1" parent="CI3YDtKb9qRA6XTvtAf0-28">
          <mxGeometry x="30" width="150" height="30" as="geometry" />
        </mxCell>
        <mxCell id="CI3YDtKb9qRA6XTvtAf0-31" value="addresses" style="shape=table;startSize=30;container=1;collapsible=1;childLayout=tableLayout;fixedRows=1;rowLines=0;fontStyle=1;align=center;resizeLast=1;" vertex="1" parent="1">
          <mxGeometry x="570" y="230" width="180" height="250" as="geometry" />
        </mxCell>
        <mxCell id="CI3YDtKb9qRA6XTvtAf0-32" value="" style="shape=partialRectangle;collapsible=0;dropTarget=0;pointerEvents=0;fillColor=none;top=0;left=0;bottom=1;right=0;points=[[0,0.5],[1,0.5]];portConstraint=eastwest;" vertex="1" parent="CI3YDtKb9qRA6XTvtAf0-31">
          <mxGeometry y="30" width="180" height="30" as="geometry" />
        </mxCell>
        <mxCell id="CI3YDtKb9qRA6XTvtAf0-33" value="PK" style="shape=partialRectangle;connectable=0;fillColor=none;top=0;left=0;bottom=0;right=0;fontStyle=1;overflow=hidden;" vertex="1" parent="CI3YDtKb9qRA6XTvtAf0-32">
          <mxGeometry width="30" height="30" as="geometry" />
        </mxCell>
        <mxCell id="CI3YDtKb9qRA6XTvtAf0-34" value="id" style="shape=partialRectangle;connectable=0;fillColor=none;top=0;left=0;bottom=0;right=0;align=left;spacingLeft=6;fontStyle=5;overflow=hidden;" vertex="1" parent="CI3YDtKb9qRA6XTvtAf0-32">
          <mxGeometry x="30" width="150" height="30" as="geometry" />
        </mxCell>
        <mxCell id="CI3YDtKb9qRA6XTvtAf0-35" value="" style="shape=partialRectangle;collapsible=0;dropTarget=0;pointerEvents=0;fillColor=none;top=0;left=0;bottom=0;right=0;points=[[0,0.5],[1,0.5]];portConstraint=eastwest;" vertex="1" parent="CI3YDtKb9qRA6XTvtAf0-31">
          <mxGeometry y="60" width="180" height="30" as="geometry" />
        </mxCell>
        <mxCell id="CI3YDtKb9qRA6XTvtAf0-36" value="FK" style="shape=partialRectangle;connectable=0;fillColor=none;top=0;left=0;bottom=0;right=0;editable=1;overflow=hidden;" vertex="1" parent="CI3YDtKb9qRA6XTvtAf0-35">
          <mxGeometry width="30" height="30" as="geometry" />
        </mxCell>
        <mxCell id="CI3YDtKb9qRA6XTvtAf0-37" value="profile_id" style="shape=partialRectangle;connectable=0;fillColor=none;top=0;left=0;bottom=0;right=0;align=left;spacingLeft=6;overflow=hidden;" vertex="1" parent="CI3YDtKb9qRA6XTvtAf0-35">
          <mxGeometry x="30" width="150" height="30" as="geometry" />
        </mxCell>
        <mxCell id="CI3YDtKb9qRA6XTvtAf0-38" value="" style="shape=partialRectangle;collapsible=0;dropTarget=0;pointerEvents=0;fillColor=none;top=0;left=0;bottom=0;right=0;points=[[0,0.5],[1,0.5]];portConstraint=eastwest;" vertex="1" parent="CI3YDtKb9qRA6XTvtAf0-31">
          <mxGeometry y="90" width="180" height="30" as="geometry" />
        </mxCell>
        <mxCell id="CI3YDtKb9qRA6XTvtAf0-39" value="" style="shape=partialRectangle;connectable=0;fillColor=none;top=0;left=0;bottom=0;right=0;editable=1;overflow=hidden;" vertex="1" parent="CI3YDtKb9qRA6XTvtAf0-38">
          <mxGeometry width="30" height="30" as="geometry" />
        </mxCell>
        <mxCell id="CI3YDtKb9qRA6XTvtAf0-40" value="street" style="shape=partialRectangle;connectable=0;fillColor=none;top=0;left=0;bottom=0;right=0;align=left;spacingLeft=6;overflow=hidden;" vertex="1" parent="CI3YDtKb9qRA6XTvtAf0-38">
          <mxGeometry x="30" width="150" height="30" as="geometry" />
        </mxCell>
        <mxCell id="CI3YDtKb9qRA6XTvtAf0-41" value="" style="shape=partialRectangle;collapsible=0;dropTarget=0;pointerEvents=0;fillColor=none;top=0;left=0;bottom=0;right=0;points=[[0,0.5],[1,0.5]];portConstraint=eastwest;" vertex="1" parent="CI3YDtKb9qRA6XTvtAf0-31">
          <mxGeometry y="120" width="180" height="30" as="geometry" />
        </mxCell>
        <mxCell id="CI3YDtKb9qRA6XTvtAf0-42" value="" style="shape=partialRectangle;connectable=0;fillColor=none;top=0;left=0;bottom=0;right=0;editable=1;overflow=hidden;" vertex="1" parent="CI3YDtKb9qRA6XTvtAf0-41">
          <mxGeometry width="30" height="30" as="geometry" />
        </mxCell>
        <mxCell id="CI3YDtKb9qRA6XTvtAf0-43" value="city" style="shape=partialRectangle;connectable=0;fillColor=none;top=0;left=0;bottom=0;right=0;align=left;spacingLeft=6;overflow=hidden;" vertex="1" parent="CI3YDtKb9qRA6XTvtAf0-41">
          <mxGeometry x="30" width="150" height="30" as="geometry" />
        </mxCell>
        <mxCell id="CI3YDtKb9qRA6XTvtAf0-44" value="" style="shape=partialRectangle;collapsible=0;dropTarget=0;pointerEvents=0;fillColor=none;top=0;left=0;bottom=0;right=0;points=[[0,0.5],[1,0.5]];portConstraint=eastwest;" vertex="1" parent="CI3YDtKb9qRA6XTvtAf0-31">
          <mxGeometry y="150" width="180" height="30" as="geometry" />
        </mxCell>
        <mxCell id="CI3YDtKb9qRA6XTvtAf0-45" value="" style="shape=partialRectangle;connectable=0;fillColor=none;top=0;left=0;bottom=0;right=0;editable=1;overflow=hidden;" vertex="1" parent="CI3YDtKb9qRA6XTvtAf0-44">
          <mxGeometry width="30" height="30" as="geometry" />
        </mxCell>
        <mxCell id="CI3YDtKb9qRA6XTvtAf0-46" value="state" style="shape=partialRectangle;connectable=0;fillColor=none;top=0;left=0;bottom=0;right=0;align=left;spacingLeft=6;overflow=hidden;" vertex="1" parent="CI3YDtKb9qRA6XTvtAf0-44">
          <mxGeometry x="30" width="150" height="30" as="geometry" />
        </mxCell>
        <mxCell id="CI3YDtKb9qRA6XTvtAf0-47" value="" style="shape=partialRectangle;collapsible=0;dropTarget=0;pointerEvents=0;fillColor=none;top=0;left=0;bottom=0;right=0;points=[[0,0.5],[1,0.5]];portConstraint=eastwest;" vertex="1" parent="CI3YDtKb9qRA6XTvtAf0-31">
          <mxGeometry y="180" width="180" height="30" as="geometry" />
        </mxCell>
        <mxCell id="CI3YDtKb9qRA6XTvtAf0-48" value="" style="shape=partialRectangle;connectable=0;fillColor=none;top=0;left=0;bottom=0;right=0;editable=1;overflow=hidden;" vertex="1" parent="CI3YDtKb9qRA6XTvtAf0-47">
          <mxGeometry width="30" height="30" as="geometry" />
        </mxCell>
        <mxCell id="CI3YDtKb9qRA6XTvtAf0-49" value="zip" style="shape=partialRectangle;connectable=0;fillColor=none;top=0;left=0;bottom=0;right=0;align=left;spacingLeft=6;overflow=hidden;" vertex="1" parent="CI3YDtKb9qRA6XTvtAf0-47">
          <mxGeometry x="30" width="150" height="30" as="geometry" />
        </mxCell>
        <mxCell id="CI3YDtKb9qRA6XTvtAf0-50" value="" style="shape=partialRectangle;collapsible=0;dropTarget=0;pointerEvents=0;fillColor=none;top=0;left=0;bottom=0;right=0;points=[[0,0.5],[1,0.5]];portConstraint=eastwest;" vertex="1" parent="CI3YDtKb9qRA6XTvtAf0-31">
          <mxGeometry y="210" width="180" height="30" as="geometry" />
        </mxCell>
        <mxCell id="CI3YDtKb9qRA6XTvtAf0-51" value="" style="shape=partialRectangle;connectable=0;fillColor=none;top=0;left=0;bottom=0;right=0;editable=1;overflow=hidden;" vertex="1" parent="CI3YDtKb9qRA6XTvtAf0-50">
          <mxGeometry width="30" height="30" as="geometry" />
        </mxCell>
        <mxCell id="CI3YDtKb9qRA6XTvtAf0-52" value="country" style="shape=partialRectangle;connectable=0;fillColor=none;top=0;left=0;bottom=0;right=0;align=left;spacingLeft=6;overflow=hidden;" vertex="1" parent="CI3YDtKb9qRA6XTvtAf0-50">
          <mxGeometry x="30" width="150" height="30" as="geometry" />
        </mxCell>
        <mxCell id="CI3YDtKb9qRA6XTvtAf0-53" style="edgeStyle=orthogonalEdgeStyle;rounded=0;orthogonalLoop=1;jettySize=auto;html=1;startArrow=ERone;startFill=0;endArrow=ERzeroToOne;endFill=1;" edge="1" parent="1" source="CI3YDtKb9qRA6XTvtAf0-69" target="CI3YDtKb9qRA6XTvtAf0-35">
          <mxGeometry relative="1" as="geometry">
            <Array as="points">
              <mxPoint x="535" y="370" />
              <mxPoint x="535" y="305" />
            </Array>
            <mxPoint x="500" y="370" as="sourcePoint" />
          </mxGeometry>
        </mxCell>
        <mxCell id="CI3YDtKb9qRA6XTvtAf0-54" value="photos" style="shape=table;startSize=30;container=1;collapsible=1;childLayout=tableLayout;fixedRows=1;rowLines=0;fontStyle=1;align=center;resizeLast=1;" vertex="1" parent="1">
          <mxGeometry x="570" y="590" width="180" height="160" as="geometry" />
        </mxCell>
        <mxCell id="CI3YDtKb9qRA6XTvtAf0-55" value="" style="shape=partialRectangle;collapsible=0;dropTarget=0;pointerEvents=0;fillColor=none;top=0;left=0;bottom=1;right=0;points=[[0,0.5],[1,0.5]];portConstraint=eastwest;" vertex="1" parent="CI3YDtKb9qRA6XTvtAf0-54">
          <mxGeometry y="30" width="180" height="30" as="geometry" />
        </mxCell>
        <mxCell id="CI3YDtKb9qRA6XTvtAf0-56" value="PK" style="shape=partialRectangle;connectable=0;fillColor=none;top=0;left=0;bottom=0;right=0;fontStyle=1;overflow=hidden;" vertex="1" parent="CI3YDtKb9qRA6XTvtAf0-55">
          <mxGeometry width="30" height="30" as="geometry" />
        </mxCell>
        <mxCell id="CI3YDtKb9qRA6XTvtAf0-57" value="id" style="shape=partialRectangle;connectable=0;fillColor=none;top=0;left=0;bottom=0;right=0;align=left;spacingLeft=6;fontStyle=5;overflow=hidden;" vertex="1" parent="CI3YDtKb9qRA6XTvtAf0-55">
          <mxGeometry x="30" width="150" height="30" as="geometry" />
        </mxCell>
        <mxCell id="CI3YDtKb9qRA6XTvtAf0-58" value="" style="shape=partialRectangle;collapsible=0;dropTarget=0;pointerEvents=0;fillColor=none;top=0;left=0;bottom=0;right=0;points=[[0,0.5],[1,0.5]];portConstraint=eastwest;" vertex="1" parent="CI3YDtKb9qRA6XTvtAf0-54">
          <mxGeometry y="60" width="180" height="30" as="geometry" />
        </mxCell>
        <mxCell id="CI3YDtKb9qRA6XTvtAf0-59" value="" style="shape=partialRectangle;connectable=0;fillColor=none;top=0;left=0;bottom=0;right=0;editable=1;overflow=hidden;" vertex="1" parent="CI3YDtKb9qRA6XTvtAf0-58">
          <mxGeometry width="30" height="30" as="geometry" />
        </mxCell>
        <mxCell id="CI3YDtKb9qRA6XTvtAf0-60" value="description" style="shape=partialRectangle;connectable=0;fillColor=none;top=0;left=0;bottom=0;right=0;align=left;spacingLeft=6;overflow=hidden;" vertex="1" parent="CI3YDtKb9qRA6XTvtAf0-58">
          <mxGeometry x="30" width="150" height="30" as="geometry" />
        </mxCell>
        <mxCell id="CI3YDtKb9qRA6XTvtAf0-61" value="" style="shape=partialRectangle;collapsible=0;dropTarget=0;pointerEvents=0;fillColor=none;top=0;left=0;bottom=0;right=0;points=[[0,0.5],[1,0.5]];portConstraint=eastwest;" vertex="1" parent="CI3YDtKb9qRA6XTvtAf0-54">
          <mxGeometry y="90" width="180" height="30" as="geometry" />
        </mxCell>
        <mxCell id="CI3YDtKb9qRA6XTvtAf0-62" value="" style="shape=partialRectangle;connectable=0;fillColor=none;top=0;left=0;bottom=0;right=0;editable=1;overflow=hidden;" vertex="1" parent="CI3YDtKb9qRA6XTvtAf0-61">
          <mxGeometry width="30" height="30" as="geometry" />
        </mxCell>
        <mxCell id="CI3YDtKb9qRA6XTvtAf0-63" value="attachment" style="shape=partialRectangle;connectable=0;fillColor=none;top=0;left=0;bottom=0;right=0;align=left;spacingLeft=6;overflow=hidden;" vertex="1" parent="CI3YDtKb9qRA6XTvtAf0-61">
          <mxGeometry x="30" width="150" height="30" as="geometry" />
        </mxCell>
        <mxCell id="CI3YDtKb9qRA6XTvtAf0-64" value="" style="shape=partialRectangle;collapsible=0;dropTarget=0;pointerEvents=0;fillColor=none;top=0;left=0;bottom=0;right=0;points=[[0,0.5],[1,0.5]];portConstraint=eastwest;" vertex="1" parent="CI3YDtKb9qRA6XTvtAf0-54">
          <mxGeometry y="120" width="180" height="30" as="geometry" />
        </mxCell>
        <mxCell id="CI3YDtKb9qRA6XTvtAf0-65" value="FK" style="shape=partialRectangle;connectable=0;fillColor=none;top=0;left=0;bottom=0;right=0;editable=1;overflow=hidden;" vertex="1" parent="CI3YDtKb9qRA6XTvtAf0-64">
          <mxGeometry width="30" height="30" as="geometry" />
        </mxCell>
        <mxCell id="CI3YDtKb9qRA6XTvtAf0-66" value="profile_id" style="shape=partialRectangle;connectable=0;fillColor=none;top=0;left=0;bottom=0;right=0;align=left;spacingLeft=6;overflow=hidden;" vertex="1" parent="CI3YDtKb9qRA6XTvtAf0-64">
          <mxGeometry x="30" width="150" height="30" as="geometry" />
        </mxCell>
        <mxCell id="CI3YDtKb9qRA6XTvtAf0-67" style="edgeStyle=orthogonalEdgeStyle;rounded=0;orthogonalLoop=1;jettySize=auto;html=1;startArrow=ERzeroToMany;startFill=1;endArrow=ERone;endFill=0;entryX=0.999;entryY=0.987;entryDx=0;entryDy=0;entryPerimeter=0;" edge="1" parent="1" source="CI3YDtKb9qRA6XTvtAf0-64" target="CI3YDtKb9qRA6XTvtAf0-69">
          <mxGeometry relative="1" as="geometry">
            <Array as="points">
              <mxPoint x="535" y="725" />
              <mxPoint x="535" y="380" />
            </Array>
            <mxPoint x="500" y="380" as="targetPoint" />
          </mxGeometry>
        </mxCell>
        <mxCell id="CI3YDtKb9qRA6XTvtAf0-68" value="users" style="shape=table;startSize=30;container=1;collapsible=1;childLayout=tableLayout;fixedRows=1;rowLines=0;fontStyle=1;align=center;resizeLast=1;" vertex="1" parent="1">
          <mxGeometry x="50" y="320" width="180" height="270" as="geometry" />
        </mxCell>
        <mxCell id="CI3YDtKb9qRA6XTvtAf0-69" value="" style="shape=partialRectangle;collapsible=0;dropTarget=0;pointerEvents=0;fillColor=none;top=0;left=0;bottom=1;right=0;points=[[0,0.5],[1,0.5]];portConstraint=eastwest;" vertex="1" parent="CI3YDtKb9qRA6XTvtAf0-68">
          <mxGeometry y="30" width="180" height="30" as="geometry" />
        </mxCell>
        <mxCell id="CI3YDtKb9qRA6XTvtAf0-70" value="PK" style="shape=partialRectangle;connectable=0;fillColor=none;top=0;left=0;bottom=0;right=0;fontStyle=1;overflow=hidden;" vertex="1" parent="CI3YDtKb9qRA6XTvtAf0-69">
          <mxGeometry width="30" height="30" as="geometry" />
        </mxCell>
        <mxCell id="CI3YDtKb9qRA6XTvtAf0-71" value="username" style="shape=partialRectangle;connectable=0;fillColor=none;top=0;left=0;bottom=0;right=0;align=left;spacingLeft=6;fontStyle=5;overflow=hidden;" vertex="1" parent="CI3YDtKb9qRA6XTvtAf0-69">
          <mxGeometry x="30" width="150" height="30" as="geometry" />
        </mxCell>
        <mxCell id="CI3YDtKb9qRA6XTvtAf0-72" value="" style="shape=partialRectangle;collapsible=0;dropTarget=0;pointerEvents=0;fillColor=none;top=0;left=0;bottom=0;right=0;points=[[0,0.5],[1,0.5]];portConstraint=eastwest;" vertex="1" parent="CI3YDtKb9qRA6XTvtAf0-68">
          <mxGeometry y="60" width="180" height="30" as="geometry" />
        </mxCell>
        <mxCell id="CI3YDtKb9qRA6XTvtAf0-73" value="" style="shape=partialRectangle;connectable=0;fillColor=none;top=0;left=0;bottom=0;right=0;editable=1;overflow=hidden;" vertex="1" parent="CI3YDtKb9qRA6XTvtAf0-72">
          <mxGeometry width="30" height="30" as="geometry" />
        </mxCell>
        <mxCell id="CI3YDtKb9qRA6XTvtAf0-74" value="aboutMe" style="shape=partialRectangle;connectable=0;fillColor=none;top=0;left=0;bottom=0;right=0;align=left;spacingLeft=6;overflow=hidden;" vertex="1" parent="CI3YDtKb9qRA6XTvtAf0-72">
          <mxGeometry x="30" width="150" height="30" as="geometry" />
        </mxCell>
        <mxCell id="CI3YDtKb9qRA6XTvtAf0-75" value="" style="shape=partialRectangle;collapsible=0;dropTarget=0;pointerEvents=0;fillColor=none;top=0;left=0;bottom=0;right=0;points=[[0,0.5],[1,0.5]];portConstraint=eastwest;" vertex="1" parent="CI3YDtKb9qRA6XTvtAf0-68">
          <mxGeometry y="90" width="180" height="30" as="geometry" />
        </mxCell>
        <mxCell id="CI3YDtKb9qRA6XTvtAf0-76" value="" style="shape=partialRectangle;connectable=0;fillColor=none;top=0;left=0;bottom=0;right=0;editable=1;overflow=hidden;" vertex="1" parent="CI3YDtKb9qRA6XTvtAf0-75">
          <mxGeometry width="30" height="30" as="geometry" />
        </mxCell>
        <mxCell id="CI3YDtKb9qRA6XTvtAf0-77" value="firstName" style="shape=partialRectangle;connectable=0;fillColor=none;top=0;left=0;bottom=0;right=0;align=left;spacingLeft=6;overflow=hidden;" vertex="1" parent="CI3YDtKb9qRA6XTvtAf0-75">
          <mxGeometry x="30" width="150" height="30" as="geometry" />
        </mxCell>
        <mxCell id="CI3YDtKb9qRA6XTvtAf0-78" value="" style="shape=partialRectangle;collapsible=0;dropTarget=0;pointerEvents=0;fillColor=none;top=0;left=0;bottom=0;right=0;points=[[0,0.5],[1,0.5]];portConstraint=eastwest;" vertex="1" parent="CI3YDtKb9qRA6XTvtAf0-68">
          <mxGeometry y="120" width="180" height="30" as="geometry" />
        </mxCell>
        <mxCell id="CI3YDtKb9qRA6XTvtAf0-79" value="" style="shape=partialRectangle;connectable=0;fillColor=none;top=0;left=0;bottom=0;right=0;editable=1;overflow=hidden;" vertex="1" parent="CI3YDtKb9qRA6XTvtAf0-78">
          <mxGeometry width="30" height="30" as="geometry" />
        </mxCell>
        <mxCell id="CI3YDtKb9qRA6XTvtAf0-80" value="lastName" style="shape=partialRectangle;connectable=0;fillColor=none;top=0;left=0;bottom=0;right=0;align=left;spacingLeft=6;overflow=hidden;" vertex="1" parent="CI3YDtKb9qRA6XTvtAf0-78">
          <mxGeometry x="30" width="150" height="30" as="geometry" />
        </mxCell>
        <mxCell id="CI3YDtKb9qRA6XTvtAf0-81" value="" style="shape=partialRectangle;collapsible=0;dropTarget=0;pointerEvents=0;fillColor=none;top=0;left=0;bottom=0;right=0;points=[[0,0.5],[1,0.5]];portConstraint=eastwest;" vertex="1" parent="CI3YDtKb9qRA6XTvtAf0-68">
          <mxGeometry y="150" width="180" height="30" as="geometry" />
        </mxCell>
        <mxCell id="CI3YDtKb9qRA6XTvtAf0-82" value="" style="shape=partialRectangle;connectable=0;fillColor=none;top=0;left=0;bottom=0;right=0;editable=1;overflow=hidden;" vertex="1" parent="CI3YDtKb9qRA6XTvtAf0-81">
          <mxGeometry width="30" height="30" as="geometry" />
        </mxCell>
        <mxCell id="CI3YDtKb9qRA6XTvtAf0-83" value="age" style="shape=partialRectangle;connectable=0;fillColor=none;top=0;left=0;bottom=0;right=0;align=left;spacingLeft=6;overflow=hidden;" vertex="1" parent="CI3YDtKb9qRA6XTvtAf0-81">
          <mxGeometry x="30" width="150" height="30" as="geometry" />
        </mxCell>
        <mxCell id="CI3YDtKb9qRA6XTvtAf0-84" value="" style="shape=partialRectangle;collapsible=0;dropTarget=0;pointerEvents=0;fillColor=none;top=0;left=0;bottom=0;right=0;points=[[0,0.5],[1,0.5]];portConstraint=eastwest;" vertex="1" parent="CI3YDtKb9qRA6XTvtAf0-68">
          <mxGeometry y="180" width="180" height="30" as="geometry" />
        </mxCell>
        <mxCell id="CI3YDtKb9qRA6XTvtAf0-85" value="" style="shape=partialRectangle;connectable=0;fillColor=none;top=0;left=0;bottom=0;right=0;editable=1;overflow=hidden;" vertex="1" parent="CI3YDtKb9qRA6XTvtAf0-84">
          <mxGeometry width="30" height="30" as="geometry" />
        </mxCell>
        <mxCell id="CI3YDtKb9qRA6XTvtAf0-86" value="gender" style="shape=partialRectangle;connectable=0;fillColor=none;top=0;left=0;bottom=0;right=0;align=left;spacingLeft=6;overflow=hidden;" vertex="1" parent="CI3YDtKb9qRA6XTvtAf0-84">
          <mxGeometry x="30" width="150" height="30" as="geometry" />
        </mxCell>
        <mxCell id="CI3YDtKb9qRA6XTvtAf0-87" value="" style="shape=partialRectangle;collapsible=0;dropTarget=0;pointerEvents=0;fillColor=none;top=0;left=0;bottom=0;right=0;points=[[0,0.5],[1,0.5]];portConstraint=eastwest;" vertex="1" parent="CI3YDtKb9qRA6XTvtAf0-68">
          <mxGeometry y="210" width="180" height="30" as="geometry" />
        </mxCell>
        <mxCell id="CI3YDtKb9qRA6XTvtAf0-88" value="" style="shape=partialRectangle;connectable=0;fillColor=none;top=0;left=0;bottom=0;right=0;editable=1;overflow=hidden;" vertex="1" parent="CI3YDtKb9qRA6XTvtAf0-87">
          <mxGeometry width="30" height="30" as="geometry" />
        </mxCell>
        <mxCell id="CI3YDtKb9qRA6XTvtAf0-89" value="hobbies" style="shape=partialRectangle;connectable=0;fillColor=none;top=0;left=0;bottom=0;right=0;align=left;spacingLeft=6;overflow=hidden;" vertex="1" parent="CI3YDtKb9qRA6XTvtAf0-87">
          <mxGeometry x="30" width="150" height="30" as="geometry" />
        </mxCell>
        <mxCell id="CI3YDtKb9qRA6XTvtAf0-90" value="" style="shape=partialRectangle;collapsible=0;dropTarget=0;pointerEvents=0;fillColor=none;top=0;left=0;bottom=0;right=0;points=[[0,0.5],[1,0.5]];portConstraint=eastwest;" vertex="1" parent="CI3YDtKb9qRA6XTvtAf0-68">
          <mxGeometry y="240" width="180" height="30" as="geometry" />
        </mxCell>
        <mxCell id="CI3YDtKb9qRA6XTvtAf0-91" value="" style="shape=partialRectangle;connectable=0;fillColor=none;top=0;left=0;bottom=0;right=0;editable=1;overflow=hidden;" vertex="1" parent="CI3YDtKb9qRA6XTvtAf0-90">
          <mxGeometry width="30" height="30" as="geometry" />
        </mxCell>
        <mxCell id="CI3YDtKb9qRA6XTvtAf0-92" value="password" style="shape=partialRectangle;connectable=0;fillColor=none;top=0;left=0;bottom=0;right=0;align=left;spacingLeft=6;overflow=hidden;" vertex="1" parent="CI3YDtKb9qRA6XTvtAf0-90">
          <mxGeometry x="30" width="150" height="30" as="geometry" />
        </mxCell>
        <mxCell id="CI3YDtKb9qRA6XTvtAf0-93" style="edgeStyle=orthogonalEdgeStyle;rounded=0;orthogonalLoop=1;jettySize=auto;html=1;endArrow=ERone;endFill=0;startArrow=ERzeroToMany;startFill=1;" edge="1" parent="1" source="CI3YDtKb9qRA6XTvtAf0-28">
          <mxGeometry relative="1" as="geometry">
            <mxPoint x="230" y="360" as="targetPoint" />
            <Array as="points">
              <mxPoint x="300" y="185" />
              <mxPoint x="300" y="360" />
            </Array>
          </mxGeometry>
        </mxCell>
        <mxCell id="CI3YDtKb9qRA6XTvtAf0-94" value="Not sure if this table will be needed" style="text;html=1;strokeColor=none;fillColor=none;align=center;verticalAlign=middle;whiteSpace=wrap;rounded=0;" vertex="1" parent="1">
          <mxGeometry x="45" y="50" width="190" height="50" as="geometry" />
        </mxCell>
      </root>
    </mxGraphModel>
  </diagram>
</mxfile>
